<svg id="Stop_Watch" data-name="Stop Watch" xmlns="http://www.w3.org/2000/svg" viewBox="0 0 1120 1120">
  <defs>
    <style>
      .cls-1{fill:#fff}
    </style>
  </defs>
  <path d="M560 90c259.65.19 470 210.83 469.8 470.48a470.15 470.15 0 0 1-286.88 432.61c-239.19 101-515-11-616-250.17s11-515 250.17-616A466.85 466.85 0 0 1 560 90m0-70C261.77 20 20 261.77 20 560s241.77 540 540 540 540-241.77 540-540S858.23 20 560 20z" id="Base"/>
  <g id="Small_Segments" data-name="Small Segments">
    <rect class="cls-1" x="739.45" y="990.18" width=".84" height="1.32" transform="rotate(-22.68 739.868 990.84)"/>
    <path d="M741.69 979.58a6.34 6.34 0 0 0-2.47.5l-6.48 2.7a6.42 6.42 0 0 0-3.45 8.39l2.9 6.92a6.43 6.43 0 0 0 8.38 3.42l6.48-2.71a6.39 6.39 0 0 0 3.45-8.35l-2.89-6.93a6.42 6.42 0 0 0-5.91-3.94z"/>
    <rect class="cls-1" x="379.69" y="128.53" width=".84" height="1.32" transform="rotate(-22.65 380.096 129.2)"/>
    <path d="M381.9 118a6.33 6.33 0 0 0-2.47.49l-6.43 2.68a6.39 6.39 0 0 0-3.45 8.35l2.89 6.93a6.42 6.42 0 0 0 5.91 3.94 6.34 6.34 0 0 0 2.47-.5l6.48-2.7a6.42 6.42 0 0 0 3.45-8.39l-2.9-6.92a6.39 6.39 0 0 0-5.95-3.88z"/>
    <rect class="cls-1" x="381.91" y="991.42" width="1.32" height=".84" transform="rotate(-67.64 382.576 991.84)"/>
    <path d="M380.76 980.61a6.43 6.43 0 0 0-5.93 4l-2.83 6.92a6.42 6.42 0 0 0 3.5 8.37l6.49 2.67a6.59 6.59 0 0 0 2.44.48 6.38 6.38 0 0 0 5.92-4l2.86-6.94a6.41 6.41 0 0 0-3.49-8.36l-6.5-2.67a6.35 6.35 0 0 0-2.43-.49z"/>
    <rect class="cls-1" x="736.04" y="131.22" width="1.31" height=".84" transform="rotate(-67.56 736.665 131.647)"/>
    <path d="M735.6 117a6.38 6.38 0 0 0-5.92 4l-2.86 6.94a6.41 6.41 0 0 0 3.49 8.36l6.5 2.67a6.39 6.39 0 0 0 8.36-3.52l2.86-6.94a6.42 6.42 0 0 0-3.5-8.37l-6.53-2.71a6.57 6.57 0 0 0-2.4-.43z"/>
    <rect class="cls-1" x="128.58" y="739.44" width="1.32" height=".84" transform="rotate(-22.67 129.233 739.848)"/>
    <path d="M131.3 728.8a6.52 6.52 0 0 0-2.47.49l-6.92 2.9a6.42 6.42 0 0 0-3.46 8.37l2.71 6.48a6.42 6.42 0 0 0 5.91 3.94 6.34 6.34 0 0 0 2.47-.5l6.93-2.89a6.4 6.4 0 0 0 3.44-8.37l-2.7-6.48a6.41 6.41 0 0 0-5.91-3.94z"/>
    <rect class="cls-1" x="990.15" y="379.77" width="1.32" height=".84" transform="rotate(-22.68 990.81 380.194)"/>
    <path d="M992.92 369a6.34 6.34 0 0 0-2.47.5l-6.93 2.89a6.4 6.4 0 0 0-3.44 8.37l2.7 6.48a6.41 6.41 0 0 0 5.92 3.94 6.52 6.52 0 0 0 2.47-.49l6.92-2.9a6.42 6.42 0 0 0 3.46-8.37l-2.72-6.42a6.42 6.42 0 0 0-5.91-3.94z"/>
    <rect class="cls-1" x="127.76" y="381.9" width=".84" height="1.32" transform="rotate(-67.68 128.18 382.563)"/>
    <path d="M126 371.49a6.41 6.41 0 0 0-5.93 4l-2.64 6.51a6.4 6.4 0 0 0 3.48 8.35l6.94 2.86a6.41 6.41 0 0 0 8.36-3.49l2.67-6.5a6.4 6.4 0 0 0-3.48-8.36l-6.93-2.86a6.59 6.59 0 0 0-2.44-.48z"/>
    <rect class="cls-1" x="991.39" y="736.72" width=".84" height="1.32" transform="rotate(-67.68 991.807 737.386)"/>
    <path d="M989.7 726.34a6.39 6.39 0 0 0-5.93 4l-2.67 6.5a6.4 6.4 0 0 0 3.48 8.36l6.94 2.86a6.59 6.59 0 0 0 2.44.48 6.41 6.41 0 0 0 5.93-4l2.67-6.49a6.4 6.4 0 0 0-3.48-8.35l-6.94-2.86a6.34 6.34 0 0 0-2.43-.48z"/>
  </g>
  <g id="Big_Segments" data-name="Big Segments">
    <rect class="cls-1" x="559.54" y="90.5" width=".92" height="21.75"/>
    <path d="M562.75 81h-5.5a7.21 7.21 0 0 0-7.25 7.17v26.37a7.21 7.21 0 0 0 7.21 7.21h5.5a7.21 7.21 0 0 0 7.29-7.13V88.21a7.21 7.21 0 0 0-7.21-7.21z"/>
    <rect class="cls-1" x="559.54" y="1007.75" width=".92" height="21.75"/>
    <path d="M562.75 998.25h-5.5a7.21 7.21 0 0 0-7.21 7.21v26.33a7.21 7.21 0 0 0 7.21 7.21h5.5a7.21 7.21 0 0 0 7.21-7.21v-26.33a7.21 7.21 0 0 0-7.21-7.21z"/>
    <rect class="cls-1" x="1007.75" y="559.54" width="21.75" height=".92"/>
    <path d="M1031.79 550h-26.33a7.21 7.21 0 0 0-7.21 7.21v5.5a7.21 7.21 0 0 0 7.21 7.21h26.33a7.21 7.21 0 0 0 7.21-7.21v-5.5a7.21 7.21 0 0 0-7.21-7.21z"/>
    <rect class="cls-1" x="90.5" y="559.54" width="21.75" height=".92"/>
    <path d="M114.54 550H88.21a7.21 7.21 0 0 0-7.21 7.21v5.54a7.21 7.21 0 0 0 7.17 7.25h26.37a7.21 7.21 0 0 0 7.21-7.21v-5.5a7.21 7.21 0 0 0-7.13-7.29z"/>
    <rect class="cls-1" x="883.84" y="873.42" width=".92" height="21.75" transform="rotate(-45 884.3 884.301)"/>
    <path d="M876.93 865.83a7.2 7.2 0 0 0-5.09 2.11l-3.9 3.9a7.21 7.21 0 0 0 0 10.19l18.63 18.62a7.21 7.21 0 0 0 10.19 0l3.89-3.89a7.2 7.2 0 0 0 0-10.17L882 867.94a7.22 7.22 0 0 0-5.1-2.11z"/>
    <rect class="cls-1" x="235.24" y="224.85" width=".92" height="21.75" transform="rotate(-45.04 235.704 235.716)"/>
    <path d="M228.34 217.24a7.22 7.22 0 0 0-5.1 2.11l-3.89 3.89a7.2 7.2 0 0 0 0 10.17L238 252.06a7.21 7.21 0 0 0 10.19 0l3.9-3.9a7.21 7.21 0 0 0 0-10.19l-18.63-18.62a7.16 7.16 0 0 0-5.09-2.11z"/>
    <rect class="cls-1" x="224.84" y="883.82" width="21.75" height=".92" transform="rotate(-45 235.721 884.281)"/>
    <path d="M243.07 865.83a7.22 7.22 0 0 0-5.1 2.11l-18.62 18.63a7.2 7.2 0 0 0 0 10.17l3.89 3.89a7.21 7.21 0 0 0 10.19 0L252.06 882a7.21 7.21 0 0 0 0-10.19l-3.9-3.9a7.2 7.2 0 0 0-5.09-2.11z"/>
    <rect class="cls-1" x="873.43" y="235.25" width="21.75" height=".92" transform="rotate(-45 884.295 235.713)"/>
    <path d="M891.66 217.24a7.16 7.16 0 0 0-5.09 2.11L867.94 238a7.21 7.21 0 0 0 0 10.19l3.9 3.9a7.21 7.21 0 0 0 10.19 0l18.62-18.63a7.2 7.2 0 0 0 0-10.17l-3.89-3.89a7.22 7.22 0 0 0-5.1-2.11z"/>
  </g>
  <circle id="Center" cx="559.5" cy="559.5" r="36.5"/>
  <path id="Indicator" d="M560 232a10 10 0 0 1 10 10v308a10 10 0 0 1-10 10 10 10 0 0 1-10-10V242a10 10 0 0 1 10-10z"/>
  <g id="Last_seconds" data-name="Last seconds">
    <path d="M295.32 138.53l-77.52 75.38a12.38 12.38 0 0 0-.24 17.49l16.57 17a12.36 12.36 0 0 0 17.48.25l125.88-122.38c9.72-9.44-.66-25.42-13.22-20.33-23.81 9.63-46 20.1-66 30.48a12 12 0 0 0-2.95 2.11zM488.63 72.06l-210.1 204.31a12.36 12.36 0 0 0-.24 17.48l16.57 17a12.37 12.37 0 0 0 17.49.25l232-225.62c8.22-8 2.08-22-9.36-21.2-13.34.87-26.58 2.36-39.66 4.38a12.35 12.35 0 0 0-6.7 3.4zM546.89 136.91L339.26 338.82a12.36 12.36 0 0 0-.26 17.48l16.58 17.05a12.36 12.36 0 0 0 17.48.24l190.53-185.26a12.38 12.38 0 0 0 3.74-8.67l.54-33.69a12.37 12.37 0 0 0-21-9.06zM544.92 260.34L400 401.27a12.36 12.36 0 0 0-.24 17.48l16.58 17.05a12.36 12.36 0 0 0 17.48.24l127.8-124.29a12.36 12.36 0 0 0 3.74-8.66l.54-33.69a12.36 12.36 0 0 0-21-9.06zM543 383.76l-82.22 80a12.36 12.36 0 0 0-.25 17.48l16.58 17.05a12.36 12.36 0 0 0 17.48.24l65.11-63.31a12.34 12.34 0 0 0 3.74-8.67l.54-33.69a12.36 12.36 0 0 0-21-9.1zM541 507.19l-19.52 19a12.37 12.37 0 0 0-.25 17.49l16.58 17a12.36 12.36 0 0 0 17.48.25l2.41-2.35a12.37 12.37 0 0 0 3.75-8.66l.53-33.69a12.36 12.36 0 0 0-21-9z"/>
  </g>
</svg>
